# xmcd
#
# Track frame offsets:
#	150
#	21672
#	42858
#	70436
#	92138
#	114305
#	133347
#	156153
#	175325
#	197183
#	222115
#
# Disc length: 3316 seconds
#
# Revision: 0
# Processed by: cddbd v1.4PL0 Copyright (c) Steve Scherf et al.
# Submitted via: dBpowerAMP V4.0
#
DISCID=a50cf20b
DTITLE=Rickie Lee Jones - Flying Cowboys
DYEAR=1900
DGENRE=
TTITLE0=The Horses
TTITLE1=Just My Baby
TTITLE2=Ghetto of My Mind
TTITLE3=Rodeo Girl
TTITLE4=Satellites
TTITLE5=Ghost Train
TTITLE6=Flying Cowboys
TTITLE7=Don't Let the Sun Catch You Cryíng
TTITLE8=Love Is Gonna Bring Us Back Alive
TTITLE9=Away From the Sky
TTITLE10=Atlas' Marker
EXTD=
EXTT0=
EXTT1=
EXTT2=
EXTT3=
EXTT4=
EXTT5=
EXTT6=
EXTT7=
EXTT8=
EXTT9=
EXTT10=
PLAYORDER=
